HIERARCHY
ROOT Hips
{
	OFFSET 0.00 0.00 0.00
	CHANNELS 6 Xposition Yposition Zposition Xrotation Yrotation Zrotation
	JOINT LeftUpLeg
	{
		OFFSET 3.64953 0.00000 0.00000
		CHANNELS 3 Xrotation Yrotation Zrotation
		JOINT LeftLeg
		{
			OFFSET 0.00000 -15.70580 0.00000
			CHANNELS 3 Xrotation Yrotation Zrotation
			JOINT LeftFoot
			{
				OFFSET 0.00000 -15.41867 0.00000
				CHANNELS 3 Xrotation Yrotation Zrotation
				JOINT LeftToeBase
				{
					OFFSET 0.00000 -1.53543 5.73033
					CHANNELS 3 Xrotation Yrotation Zrotation
					End Site
					{
						OFFSET 0.00000 0.00000 2.95275
					}
				}
			}
		}
	}
	JOINT RightUpLeg
	{
		OFFSET -3.64953 0.00000 0.00000
		CHANNELS 3 Xrotation Yrotation Zrotation
		JOINT RightLeg
		{
			OFFSET 0.00000 -15.70580 0.00000
			CHANNELS 3 Xrotation Yrotation Zrotation
			JOINT RightFoot
			{
				OFFSET 0.00000 -15.41867 0.00000
				CHANNELS 3 Xrotation Yrotation Zrotation
				JOINT RightToeBase
				{
					OFFSET 0.00000 -1.53543 5.73033
					CHANNELS 3 Xrotation Yrotation Zrotation
					End Site
					{
						OFFSET 0.00000 0.00000 2.95275
					}
				}
			}
		}
	}
	JOINT Spine
	{
		OFFSET 0.00000 0.03937 0.00000
		CHANNELS 3 Xrotation Yrotation Zrotation
		JOINT Spine1
		{
			OFFSET 0.00000 10.24829 0.00000
			CHANNELS 3 Xrotation Yrotation Zrotation
			JOINT Neck
			{
				OFFSET 0.00000 7.82687 0.00000
				CHANNELS 3 Xrotation Yrotation Zrotation
				JOINT Head
				{
					OFFSET 0.00000 6.90715 0.00000
					CHANNELS 3 Xrotation Yrotation Zrotation
					End Site
					{
						OFFSET 0.00000 4.52755 0.00000
					}
				}
			}
			JOINT LeftShoulder
			{
				OFFSET 0.00000 7.82687 0.00000
				CHANNELS 3 Xrotation Yrotation Zrotation
				JOINT LeftArm
				{
					OFFSET 6.71018 -0.00002 0.00000
					CHANNELS 3 Xrotation Yrotation Zrotation
					JOINT LeftForeArm
					{
						OFFSET 10.94419 -0.00004 0.00000
						CHANNELS 3 Xrotation Yrotation Zrotation
						JOINT LeftHand
						{
							OFFSET 8.52010 -0.00003 0.00000
							CHANNELS 3 Xrotation Yrotation Zrotation
							JOINT LeftHandThumb
							{
								OFFSET 0.00000 0.00000 0.00000
								CHANNELS 3 Xrotation Yrotation Zrotation
								End Site
								{
									OFFSET 0.00000 0.00000 3.93700
								}
							}
							JOINT L_Wrist_End
							{
								OFFSET 3.93700 -0.00001 0.00000
								CHANNELS 3 Xrotation Yrotation Zrotation
							}
						}
					}
				}
			}
			JOINT RightShoulder
			{
				OFFSET 0.00000 7.82687 0.00000
				CHANNELS 3 Xrotation Yrotation Zrotation
				JOINT RightArm
				{
					OFFSET -6.71018 -0.00002 0.00000
					CHANNELS 3 Xrotation Yrotation Zrotation
					JOINT RightForeArm
					{
						OFFSET -10.94419 -0.00004 0.00000
						CHANNELS 3 Xrotation Yrotation Zrotation
						JOINT RightHand
						{
							OFFSET -8.52010 -0.00003 0.00000
							CHANNELS 3 Xrotation Yrotation Zrotation
							JOINT RightHandThumb
							{
								OFFSET 0.00000 0.00000 0.00000
								CHANNELS 3 Xrotation Yrotation Zrotation
								End Site
								{
									OFFSET 0.00000 0.00000 3.93700
								}
							}
							JOINT R_Wrist_End
							{
								OFFSET -5.39369 -0.00002 0.00000
								CHANNELS 3 Xrotation Yrotation Zrotation
							}
						}
					}
				}
			}
		}
	}
}
MOTION
Frames: 6
Frame Time: 0.008333
 -1.5908 40.8157 34.9286 2.1064 -10.7906 1.3592 1.5958 -4.2274 0.9749 37.7448 -0.0000 0.0000 14.9906 -2.0752 -20.0059 -13.4943 0.0000 -0.0000 4.8013 -0.7561 -2.3326 32.4560 -0.0000 0.0000 11.6979 3.6354 -1.0241 14.7815 0.0000 0.0000 -5.1146 3.4834 -1.8411 12.5089 -0.3432 -4.7784 2.8791 4.3211 -5.7628 7.3813 1.7330 7.9991 16.7518 7.5775 0.0914 -39.1527 -44.0594 -69.5820 -0.0002 -45.6922 -0.0001 -13.9851 -7.2362 -8.1911 0.0000 -0.0000 0.0000 0.0000 -0.0000 0.0000 10.5465 -12.4095 -1.7788 -35.2732 49.4634 82.7485 -0.0002 46.6452 0.0001 -31.6291 4.8343 10.0966 0.0000 -0.0000 0.0000 0.0000 -0.0000 0.0000
 -1.6095 41.1029 35.3738 1.6621 -10.9577 1.4029 1.6074 -3.9276 0.7903 37.2117 -0.0000 0.0000 14.2404 -1.5402 -19.4567 -13.5844 0.0000 0.0000 4.7290 -1.8237 -2.4586 31.9100 -0.0000 0.0000 11.0535 3.8520 -1.2651 14.5816 -0.0000 0.0000 -4.9810 3.5237 -1.9035 12.7495 -0.2981 -4.8860 3.0400 4.6099 -5.9384 7.6345 1.4614 8.1268 16.8372 7.6104 0.1002 -39.0584 -43.8164 -69.8727 -0.0002 -45.4855 -0.0001 -13.9491 -6.9816 -8.0942 -0.0000 -0.0000 -0.0000 -0.0000 -0.0000 -0.0000 10.7582 -12.5675 -1.8128 -34.0518 49.3385 81.9741 -0.0002 46.6350 0.0001 -31.3325 4.8437 9.4289 0.0000 -0.0000 0.0000 0.0000 -0.0000 0.0000
 -1.6397 41.3638 35.7797 1.5993 -11.0241 1.3725 1.1184 -3.5703 0.8326 36.6839 0.0000 0.0000 13.3812 -1.0355 -18.9310 -13.6972 0.0000 0.0000 4.2731 -3.0435 -2.4148 31.0892 -0.0000 0.0000 10.1770 4.0002 -1.6532 14.2605 -0.0000 0.0000 -4.9325 3.5101 -1.9110 12.5992 -0.3132 -4.9225 3.2993 4.6043 -6.1006 7.8400 1.5101 8.1541 17.0871 7.7410 0.0408 -39.0043 -43.7850 -70.0838 -0.0002 -45.1308 -0.0001 -13.9390 -6.9094 -8.0337 -0.0000 0.0000 0.0000 -0.0000 0.0000 0.0000 11.1166 -12.8300 -1.8869 -33.2104 49.4948 81.4410 -0.0002 46.1880 0.0001 -31.2315 4.9935 8.8939 0.0000 0.0000 -0.0000 0.0000 0.0000 -0.0000
 -1.6753 41.6051 36.2209 1.2420 -11.2470 1.3166 1.1941 -3.1302 0.8406 35.7030 -0.0000 0.0000 12.4391 -0.4743 -18.4377 -13.5675 0.0000 -0.0000 4.2910 -4.1200 -2.3826 29.8678 -0.0000 0.0000 9.0556 4.0050 -2.1171 13.7172 0.0000 0.0000 -4.9282 3.6307 -1.9087 12.9343 -0.2075 -5.0492 3.5025 4.8192 -6.1213 8.0323 1.2359 8.1663 17.0874 7.7404 0.1439 -38.8779 -43.6140 -70.3926 -0.0002 -44.8286 -0.0001 -13.6803 -6.6969 -7.8097 0.0000 0.0000 -0.0000 0.0000 0.0000 -0.0000 11.1554 -12.9088 -1.8345 -31.6818 49.2903 80.4755 -0.0002 46.0999 0.0001 -30.8449 4.7147 8.2938 -0.0000 0.0000 0.0000 -0.0000 0.0000 0.0000
 -1.7026 41.8142 36.6220 1.2249 -11.3076 1.2988 0.7088 -2.7195 0.9055 34.9285 -0.0000 0.0000 11.4793 -0.0305 -17.6421 -13.3808 -0.0000 -0.0000 3.8936 -5.4733 -2.3390 28.5957 -0.0000 0.0000 7.4393 4.1951 -3.0512 13.5721 0.0000 0.0000 -4.8537 3.6054 -1.9125 12.7214 -0.2324 -5.0852 3.7633 4.8309 -6.3846 8.2237 1.3015 8.3583 17.1134 7.9302 0.0639 -38.5080 -43.6858 -70.5472 -0.0002 -44.5486 -0.0001 -13.5169 -6.4656 -7.6609 -0.0000 -0.0000 0.0000 -0.0000 -0.0000 0.0000 11.3762 -13.2151 -1.8670 -30.6845 49.4549 79.8975 -0.0002 45.5731 0.0001 -30.3382 4.4538 7.9306 0.0000 -0.0000 -0.0000 0.0000 -0.0000 -0.0000
 -1.7314 41.9988 37.0196 1.1967 -11.4008 1.2816 0.2510 -2.3414 0.9734 34.0601 -0.0000 0.0000 10.6298 0.3912 -17.1264 -13.2099 0.0000 0.0000 3.5053 -6.6939 -2.2443 27.2302 -0.0000 0.0000 5.6353 4.2370 -4.1157 13.2984 -0.0000 0.0000 -4.7743 3.5958 -1.9244 12.5523 -0.2420 -5.1252 3.9703 4.8866 -6.6170 8.5118 1.3414 8.5036 17.0863 8.1200 -0.0132 -38.0814 -43.7427 -70.6892 -0.0002 -44.3097 -0.0001 -13.2191 -6.2602 -7.4074 0.0000 0.0000 -0.0000 0.0000 0.0000 -0.0000 11.4888 -13.4658 -1.8624 -29.4955 49.6000 79.1754 -0.0002 45.0662 0.0001 -29.7422 4.0757 7.6700 -0.0000 -0.0000 -0.0000 -0.0000 -0.0000 -0.0000
